<svg class="diagram-root" style="background: #f5f6f6" xmlns="http://www.w3.org/2000/svg" xmlns:xlink="http://www.w3.org/1999/xlink"><style>.diagram-root { font-family: "Helvetica Neue", sans-serif; font-size: 12px; } .t { overflow: visible; } .t-bg { y: 40; fill: #fff;   } .th { fill: #005aa0;   } .tht { fill: #fff; font-size: 14px;  } .tf { fill: #323c46; overflow: visible; } .tf.pk { fill: #005aa0; font-weight: bold; } .tf.fk { font-weight: bold; } .ty { fill: #adb1b5; font-weight: normal; text-anchor: end; } .r { fill: transparent; stroke: #c3c3c3; stroke-width: 1; } .l { stroke: 1; } .i { fill: #c2c7ce; stroke: #c2c7ce; } .i.ix { fill: #afb3b6; stroke: #000; } .fa { fill: transparent; overflow: visible; } .fa .bg.hover { fill: #f7f7f7; } .c { cy: 12; r: 4; stroke: #d2d2dc; fill: #d2d2dc; } .hr { fill: transparent; stroke: #323c46; stroke-opacity: 0.035; stroke-width: 13; } .dc { stroke: #fa5a3c; fill: #fa5a3c; } .x { stroke: white; stroke-width: 1; } .hl .th { fill: #1b9bff; } .hl .tht {  } .fhl .bg { fill: #e7f4ff; } .fhls .bg {  } .r.hl { stroke: #1b9bff; } .dim { opacity: 0.25; }</style><g class="drawing-wrapper" transform="translate(121.96333333333371, -79.32111111111125) scale(1,1)"><g class="rs"><path d="M 545.07 670.36 m -1, 0 a 1,1 0 1,0 2,0 a 1,1 0 1,0 -2,0 M 545.07 670.36 m -0.5, 0 a 0.5,0.5 0 1,0 1,0 a 0.5,0.5 0 1,0 -1,0  M545.07 670.36 L545.07 670.36 533.07 670.36 M539.07 676.36 L539.07 676.36 539.07 664.36 M533.07 670.36 Q 511.46 670.36, 489.84 670.74 T 446.61 671.11 M 434.61 671.11 m -1, 0 a 1,1 0 1,0 2,0 a 1,1 0 1,0 -2,0 M 434.61 671.11 m -0.5, 0 a 0.5,0.5 0 1,0 1,0 a 0.5,0.5 0 1,0 -1,0  M434.61 671.11 L434.61 671.11 446.61 671.11 M 434.61 677.11 m -1, 0 a 1,1 0 1,0 2,0 a 1,1 0 1,0 -2,0 M 434.61 677.11 m -0.5, 0 a 0.5,0.5 0 1,0 1,0 a 0.5,0.5 0 1,0 -1,0  M434.61 677.11 L434.61 677.11 441.61 671.11 434.61 665.11 M 434.61 665.11 m -1, 0 a 1,1 0 1,0 2,0 a 1,1 0 1,0 -2,0 M 434.61 665.11 m -0.5, 0 a 0.5,0.5 0 1,0 1,0 a 0.5,0.5 0 1,0 -1,0 " id="h1872102206" class="r"></path><path d="M 834.5 620.61 m -1, 0 a 1,1 0 1,0 2,0 a 1,1 0 1,0 -2,0 M 834.5 620.61 m -0.5, 0 a 0.5,0.5 0 1,0 1,0 a 0.5,0.5 0 1,0 -1,0  M834.5 620.61 L834.5 620.61 822.5 620.61 M828.5 626.61 L828.5 626.61 828.5 614.61 M822.5 620.61 Q 802.49 620.61, 782.48 620.49 T 742.45 620.36 M 730.45 620.36 m -1, 0 a 1,1 0 1,0 2,0 a 1,1 0 1,0 -2,0 M 730.45 620.36 m -0.5, 0 a 0.5,0.5 0 1,0 1,0 a 0.5,0.5 0 1,0 -1,0  M730.45 620.36 L730.45 620.36 742.45 620.36 M 730.45 626.36 m -1, 0 a 1,1 0 1,0 2,0 a 1,1 0 1,0 -2,0 M 730.45 626.36 m -0.5, 0 a 0.5,0.5 0 1,0 1,0 a 0.5,0.5 0 1,0 -1,0  M730.45 626.36 L730.45 626.36 737.45 620.36 730.45 614.36 M 730.45 614.36 m -1, 0 a 1,1 0 1,0 2,0 a 1,1 0 1,0 -2,0 M 730.45 614.36 m -0.5, 0 a 0.5,0.5 0 1,0 1,0 a 0.5,0.5 0 1,0 -1,0 " id="h1703332253" class="r"></path><path d="M 1014.57 645.61 m -1, 0 a 1,1 0 1,0 2,0 a 1,1 0 1,0 -2,0 M 1014.57 645.61 m -0.5, 0 a 0.5,0.5 0 1,0 1,0 a 0.5,0.5 0 1,0 -1,0  M1014.57 645.61 L1014.57 645.61 1026.5700000000002 645.61 M 1014.57 651.61 m -1, 0 a 1,1 0 1,0 2,0 a 1,1 0 1,0 -2,0 M 1014.57 651.61 m -0.5, 0 a 0.5,0.5 0 1,0 1,0 a 0.5,0.5 0 1,0 -1,0  M1014.57 651.61 L1014.57 651.61 1021.57 645.61 1014.57 639.61 M 1014.57 639.61 m -1, 0 a 1,1 0 1,0 2,0 a 1,1 0 1,0 -2,0 M 1014.57 639.61 m -0.5, 0 a 0.5,0.5 0 1,0 1,0 a 0.5,0.5 0 1,0 -1,0  M1026.5700000000002 645.61 Q 1060.93 645.61, 1095.29 535.9 T 1164 426.18 M 1176 426.18 m -1, 0 a 1,1 0 1,0 2,0 a 1,1 0 1,0 -2,0 M 1176 426.18 m -0.5, 0 a 0.5,0.5 0 1,0 1,0 a 0.5,0.5 0 1,0 -1,0  M1176 426.18 L1176 426.18 1164 426.18 M 1176 432.18 m -1, 0 a 1,1 0 1,0 2,0 a 1,1 0 1,0 -2,0 M 1176 432.18 m -0.5, 0 a 0.5,0.5 0 1,0 1,0 a 0.5,0.5 0 1,0 -1,0  M1176 432.18 L1176 432.18 1169 426.18 1176 420.18 M 1176 420.18 m -1, 0 a 1,1 0 1,0 2,0 a 1,1 0 1,0 -2,0 M 1176 420.18 m -0.5, 0 a 0.5,0.5 0 1,0 1,0 a 0.5,0.5 0 1,0 -1,0 " id="h3350648689" class="r"></path><path d="M 102.34 301.22 m -1, 0 a 1,1 0 1,0 2,0 a 1,1 0 1,0 -2,0 M 102.34 301.22 m -0.5, 0 a 0.5,0.5 0 1,0 1,0 a 0.5,0.5 0 1,0 -1,0  M102.34 301.22 L102.34 301.22 114.34 301.22 M 102.34 307.22 m -1, 0 a 1,1 0 1,0 2,0 a 1,1 0 1,0 -2,0 M 102.34 307.22 m -0.5, 0 a 0.5,0.5 0 1,0 1,0 a 0.5,0.5 0 1,0 -1,0  M102.34 307.22 L102.34 307.22 109.34 301.22 102.34 295.22 M 102.34 295.22 m -1, 0 a 1,1 0 1,0 2,0 a 1,1 0 1,0 -2,0 M 102.34 295.22 m -0.5, 0 a 0.5,0.5 0 1,0 1,0 a 0.5,0.5 0 1,0 -1,0  M114.34 301.22 Q 138.23 301.22, 162.12 301.09 T 209.9 300.95 M 221.9 300.95 m -1, 0 a 1,1 0 1,0 2,0 a 1,1 0 1,0 -2,0 M 221.9 300.95 m -0.5, 0 a 0.5,0.5 0 1,0 1,0 a 0.5,0.5 0 1,0 -1,0  M221.9 300.95 L221.9 300.95 209.9 300.95 M215.9 306.95 L215.9 306.95 215.9 294.95" id="h3199718327" class="r"></path><path d="M 1372.73 501.18 m -1, 0 a 1,1 0 1,0 2,0 a 1,1 0 1,0 -2,0 M 1372.73 501.18 m -0.5, 0 a 0.5,0.5 0 1,0 1,0 a 0.5,0.5 0 1,0 -1,0  M1372.73 501.18 L1372.73 501.18 1384.73 501.18 M 1372.73 507.18 m -1, 0 a 1,1 0 1,0 2,0 a 1,1 0 1,0 -2,0 M 1372.73 507.18 m -0.5, 0 a 0.5,0.5 0 1,0 1,0 a 0.5,0.5 0 1,0 -1,0  M1372.73 507.18 L1372.73 507.18 1379.73 501.18 1372.73 495.18 M 1372.73 495.18 m -1, 0 a 1,1 0 1,0 2,0 a 1,1 0 1,0 -2,0 M 1372.73 495.18 m -0.5, 0 a 0.5,0.5 0 1,0 1,0 a 0.5,0.5 0 1,0 -1,0  M1384.73 501.18 C 1500.65 501.18, 1475.93 242.54, 1425.93 242.54 M 1413.93 242.54 m -1, 0 a 1,1 0 1,0 2,0 a 1,1 0 1,0 -2,0 M 1413.93 242.54 m -0.5, 0 a 0.5,0.5 0 1,0 1,0 a 0.5,0.5 0 1,0 -1,0  M1413.93 242.54 L1413.93 242.54 1425.93 242.54 M 1413.93 248.54 m -1, 0 a 1,1 0 1,0 2,0 a 1,1 0 1,0 -2,0 M 1413.93 248.54 m -0.5, 0 a 0.5,0.5 0 1,0 1,0 a 0.5,0.5 0 1,0 -1,0  M1413.93 248.54 L1413.93 248.54 1420.93 242.54 1413.93 236.54 M 1413.93 236.54 m -1, 0 a 1,1 0 1,0 2,0 a 1,1 0 1,0 -2,0 M 1413.93 236.54 m -0.5, 0 a 0.5,0.5 0 1,0 1,0 a 0.5,0.5 0 1,0 -1,0 " id="h3915705864" class="r"></path><path d="M 1372.73 526.1800000000001 m -1, 0 a 1,1 0 1,0 2,0 a 1,1 0 1,0 -2,0 M 1372.73 526.1800000000001 m -0.5, 0 a 0.5,0.5 0 1,0 1,0 a 0.5,0.5 0 1,0 -1,0  M1372.73 526.1800000000001 L1372.73 526.1800000000001 1384.73 526.1800000000001 M 1372.73 532.1800000000001 m -1, 0 a 1,1 0 1,0 2,0 a 1,1 0 1,0 -2,0 M 1372.73 532.1800000000001 m -0.5, 0 a 0.5,0.5 0 1,0 1,0 a 0.5,0.5 0 1,0 -1,0  M1372.73 532.1800000000001 L1372.73 532.1800000000001 1379.73 526.1800000000001 1372.73 520.1800000000001 M 1372.73 520.1800000000001 m -1, 0 a 1,1 0 1,0 2,0 a 1,1 0 1,0 -2,0 M 1372.73 520.1800000000001 m -0.5, 0 a 0.5,0.5 0 1,0 1,0 a 0.5,0.5 0 1,0 -1,0  M1384.73 526.1800000000001 C 1519.21 526.1800000000001, 1487.53 902.54, 1437.53 902.54 M 1425.53 902.54 m -1, 0 a 1,1 0 1,0 2,0 a 1,1 0 1,0 -2,0 M 1425.53 902.54 m -0.5, 0 a 0.5,0.5 0 1,0 1,0 a 0.5,0.5 0 1,0 -1,0  M1425.53 902.54 L1425.53 902.54 1437.53 902.54 M 1425.53 908.54 m -1, 0 a 1,1 0 1,0 2,0 a 1,1 0 1,0 -2,0 M 1425.53 908.54 m -0.5, 0 a 0.5,0.5 0 1,0 1,0 a 0.5,0.5 0 1,0 -1,0  M1425.53 908.54 L1425.53 908.54 1432.53 902.54 1425.53 896.54 M 1425.53 896.54 m -1, 0 a 1,1 0 1,0 2,0 a 1,1 0 1,0 -2,0 M 1425.53 896.54 m -0.5, 0 a 0.5,0.5 0 1,0 1,0 a 0.5,0.5 0 1,0 -1,0 " id="h1066386587" class="r"></path><path d="M 1036.66 191.32 m -1, 0 a 1,1 0 1,0 2,0 a 1,1 0 1,0 -2,0 M 1036.66 191.32 m -0.5, 0 a 0.5,0.5 0 1,0 1,0 a 0.5,0.5 0 1,0 -1,0  M1036.66 191.32 L1036.66 191.32 1048.66 191.32 M 1036.66 197.32 m -1, 0 a 1,1 0 1,0 2,0 a 1,1 0 1,0 -2,0 M 1036.66 197.32 m -0.5, 0 a 0.5,0.5 0 1,0 1,0 a 0.5,0.5 0 1,0 -1,0  M1036.66 197.32 L1036.66 197.32 1043.66 191.32 1036.66 185.32 M 1036.66 185.32 m -1, 0 a 1,1 0 1,0 2,0 a 1,1 0 1,0 -2,0 M 1036.66 185.32 m -0.5, 0 a 0.5,0.5 0 1,0 1,0 a 0.5,0.5 0 1,0 -1,0  M1048.66 191.32 Q 1077.49 191.32, 1106.33 308.75 T 1164 426.18 M 1176 426.18 m -1, 0 a 1,1 0 1,0 2,0 a 1,1 0 1,0 -2,0 M 1176 426.18 m -0.5, 0 a 0.5,0.5 0 1,0 1,0 a 0.5,0.5 0 1,0 -1,0  M1176 426.18 L1176 426.18 1164 426.18 M1170 432.18 L1170 432.18 1170 420.18" id="h354910732" class="r"></path><path d="M 835.92 216.32 m -1, 0 a 1,1 0 1,0 2,0 a 1,1 0 1,0 -2,0 M 835.92 216.32 m -0.5, 0 a 0.5,0.5 0 1,0 1,0 a 0.5,0.5 0 1,0 -1,0  M835.92 216.32 L835.92 216.32 823.92 216.32 M 835.92 222.32 m -1, 0 a 1,1 0 1,0 2,0 a 1,1 0 1,0 -2,0 M 835.92 222.32 m -0.5, 0 a 0.5,0.5 0 1,0 1,0 a 0.5,0.5 0 1,0 -1,0  M835.92 222.32 L835.92 222.32 828.92 216.32 835.92 210.32 M 835.92 210.32 m -1, 0 a 1,1 0 1,0 2,0 a 1,1 0 1,0 -2,0 M 835.92 210.32 m -0.5, 0 a 0.5,0.5 0 1,0 1,0 a 0.5,0.5 0 1,0 -1,0  M823.92 216.32 Q 722.82 216.32, 621.72 258.64 T 419.53 300.95 M 407.53 300.95 m -1, 0 a 1,1 0 1,0 2,0 a 1,1 0 1,0 -2,0 M 407.53 300.95 m -0.5, 0 a 0.5,0.5 0 1,0 1,0 a 0.5,0.5 0 1,0 -1,0  M407.53 300.95 L407.53 300.95 419.53 300.95 M413.53 306.95 L413.53 306.95 413.53 294.95" id="h1341560086" class="r"></path><path d="M 835.92 316.32 m -1, 0 a 1,1 0 1,0 2,0 a 1,1 0 1,0 -2,0 M 835.92 316.32 m -0.5, 0 a 0.5,0.5 0 1,0 1,0 a 0.5,0.5 0 1,0 -1,0  M835.92 316.32 L835.92 316.32 823.92 316.32 M 835.92 322.32 m -1, 0 a 1,1 0 1,0 2,0 a 1,1 0 1,0 -2,0 M 835.92 322.32 m -0.5, 0 a 0.5,0.5 0 1,0 1,0 a 0.5,0.5 0 1,0 -1,0  M835.92 322.32 L835.92 322.32 828.92 316.32 835.92 310.32 M 835.92 310.32 m -1, 0 a 1,1 0 1,0 2,0 a 1,1 0 1,0 -2,0 M 835.92 310.32 m -0.5, 0 a 0.5,0.5 0 1,0 1,0 a 0.5,0.5 0 1,0 -1,0  M823.92 316.32 Q 722.82 316.32, 621.72 308.64 T 419.53 300.95 M 407.53 300.95 m -1, 0 a 1,1 0 1,0 2,0 a 1,1 0 1,0 -2,0 M 407.53 300.95 m -0.5, 0 a 0.5,0.5 0 1,0 1,0 a 0.5,0.5 0 1,0 -1,0  M407.53 300.95 L407.53 300.95 419.53 300.95 M 407.53 306.95 m -1, 0 a 1,1 0 1,0 2,0 a 1,1 0 1,0 -2,0 M 407.53 306.95 m -0.5, 0 a 0.5,0.5 0 1,0 1,0 a 0.5,0.5 0 1,0 -1,0  M407.53 306.95 L407.53 306.95 414.53 300.95 407.53 294.95 M 407.53 294.95 m -1, 0 a 1,1 0 1,0 2,0 a 1,1 0 1,0 -2,0 M 407.53 294.95 m -0.5, 0 a 0.5,0.5 0 1,0 1,0 a 0.5,0.5 0 1,0 -1,0 " id="h2880185546" class="r"></path><path d="M 207.84 696.11 m -1, 0 a 1,1 0 1,0 2,0 a 1,1 0 1,0 -2,0 M 207.84 696.11 m -0.5, 0 a 0.5,0.5 0 1,0 1,0 a 0.5,0.5 0 1,0 -1,0  M207.84 696.11 L207.84 696.11 195.84 696.11 M201.84 702.11 L201.84 702.11 201.84 690.11 M195.84 696.11 C 145.84 696.11, 137.404 300.95, 209.9 300.95 M 221.9 300.95 m -1, 0 a 1,1 0 1,0 2,0 a 1,1 0 1,0 -2,0 M 221.9 300.95 m -0.5, 0 a 0.5,0.5 0 1,0 1,0 a 0.5,0.5 0 1,0 -1,0  M221.9 300.95 L221.9 300.95 209.9 300.95 M215.9 306.95 L215.9 306.95 215.9 294.95" id="h4033658" class="r"></path><path d="M 776.36 427 m -1, 0 a 1,1 0 1,0 2,0 a 1,1 0 1,0 -2,0 M 776.36 427 m -0.5, 0 a 0.5,0.5 0 1,0 1,0 a 0.5,0.5 0 1,0 -1,0  M776.36 427 L776.36 427 788.36 427 M 776.36 433 m -1, 0 a 1,1 0 1,0 2,0 a 1,1 0 1,0 -2,0 M 776.36 433 m -0.5, 0 a 0.5,0.5 0 1,0 1,0 a 0.5,0.5 0 1,0 -1,0  M776.36 433 L776.36 433 783.36 427 776.36 421 M 776.36 421 m -1, 0 a 1,1 0 1,0 2,0 a 1,1 0 1,0 -2,0 M 776.36 421 m -0.5, 0 a 0.5,0.5 0 1,0 1,0 a 0.5,0.5 0 1,0 -1,0  M788.36 427 Q 882.27 427, 976.18 426.59 T 1164 426.18 M 1176 426.18 m -1, 0 a 1,1 0 1,0 2,0 a 1,1 0 1,0 -2,0 M 1176 426.18 m -0.5, 0 a 0.5,0.5 0 1,0 1,0 a 0.5,0.5 0 1,0 -1,0  M1176 426.18 L1176 426.18 1164 426.18 M 1176 432.18 m -1, 0 a 1,1 0 1,0 2,0 a 1,1 0 1,0 -2,0 M 1176 432.18 m -0.5, 0 a 0.5,0.5 0 1,0 1,0 a 0.5,0.5 0 1,0 -1,0  M1176 432.18 L1176 432.18 1169 426.18 1176 420.18 M 1176 420.18 m -1, 0 a 1,1 0 1,0 2,0 a 1,1 0 1,0 -2,0 M 1176 420.18 m -0.5, 0 a 0.5,0.5 0 1,0 1,0 a 0.5,0.5 0 1,0 -1,0 " id="h2019053055" class="r"></path><path d="M 586.96 452 m -1, 0 a 1,1 0 1,0 2,0 a 1,1 0 1,0 -2,0 M 586.96 452 m -0.5, 0 a 0.5,0.5 0 1,0 1,0 a 0.5,0.5 0 1,0 -1,0  M586.96 452 L586.96 452 574.96 452 M580.96 458 L580.96 458 580.96 446 M574.96 452 Q 536.11 452, 497.25 376.48 T 419.53 300.95 M 407.53 300.95 m -1, 0 a 1,1 0 1,0 2,0 a 1,1 0 1,0 -2,0 M 407.53 300.95 m -0.5, 0 a 0.5,0.5 0 1,0 1,0 a 0.5,0.5 0 1,0 -1,0  M407.53 300.95 L407.53 300.95 419.53 300.95 M413.53 306.95 L413.53 306.95 413.53 294.95" id="h1998547330" class="r"></path></g><g class="hrs"></g><g class="ts"><svg width="185.38" height="500" x="545.07" y="563.36" id="h4176899315" class="t"><rect height="40" width="185.38" class="th"></rect><text x="13" y="25" class="tht">Order</text><rect height="460" width="185.38" class="t-bg"></rect><text x="13" y="61" class="tf pk">id<tspan x="172.38" class="ty">int</tspan></text><path d="M7,14A2,2 0 0,1 5,12A2,2 0 0,1 7,10A2,2 0 0,1 9,12A2,2 0 0,1 7,14M12.65,10C11.83,7.67 9.61,6 7, 6A6, 6 0 0, 0 1, 12A6, 6 0 0, 0 7, 18C9.61, 18 11.83, 16.33 12.65, 14H17V18H21V14H23V10H12.65Z" class="i pk" transform="translate(139.706171875, 48) scale(0.65)"></path><text x="13" y="86" class="tf">order_number<tspan x="172.38" class="ty">CharField</tspan></text><text x="13" y="111" class="tf fk">user_profile<tspan x="172.38" class="ty">ForeignKey</tspan></text><text x="13" y="136" class="tf">full_name<tspan x="172.38" class="ty">CharField</tspan></text><text x="13" y="161" class="tf">email<tspan x="172.38" class="ty">EmailField</tspan></text><text x="13" y="186" class="tf">phone_number<tspan x="172.38" class="ty">CharField</tspan></text><text x="13" y="211" class="tf">country<tspan x="172.38" class="ty">CountryField</tspan></text><text x="13" y="236" class="tf">postcode<tspan x="172.38" class="ty">CharField</tspan></text><text x="13" y="261" class="tf">town_or_city<tspan x="172.38" class="ty">CharField</tspan></text><text x="13" y="286" class="tf">street_address1<tspan x="172.38" class="ty">CharField</tspan></text><text x="13" y="311" class="tf">street_address2<tspan x="172.38" class="ty">CharField</tspan></text><text x="13" y="336" class="tf">county<tspan x="172.38" class="ty">CharField</tspan></text><text x="13" y="361" class="tf">date<tspan x="172.38" class="ty">DateTimeField</tspan></text><text x="13" y="386" class="tf">delivery_cost<tspan x="172.38" class="ty">DecimalField</tspan></text><text x="13" y="411" class="tf">order_total<tspan x="172.38" class="ty">DecimalField</tspan></text><text x="13" y="436" class="tf">grand_total<tspan x="172.38" class="ty">DecimalField</tspan></text><text x="13" y="461" class="tf">original_cart<tspan x="172.38" class="ty">TextField</tspan></text><text x="13" y="486" class="tf">stripe_pid<tspan x="172.38" class="ty">CharField</tspan></text></svg><svg width="180.07" height="175" x="834.5" y="538.61" id="h1789807113" class="t"><rect height="40" width="180.07" class="th"></rect><text x="13" y="25" class="tht">OrderLine</text><rect height="135" width="180.07" class="t-bg"></rect><text x="13" y="61" class="tf pk">id<tspan x="167.07" class="ty">int</tspan></text><path d="M7,14A2,2 0 0,1 5,12A2,2 0 0,1 7,10A2,2 0 0,1 9,12A2,2 0 0,1 7,14M12.65,10C11.83,7.67 9.61,6 7, 6A6, 6 0 0, 0 1, 12A6, 6 0 0, 0 7, 18C9.61, 18 11.83, 16.33 12.65, 14H17V18H21V14H23V10H12.65Z" class="i pk" transform="translate(134.396171875, 48) scale(0.65)"></path><text x="13" y="86" class="tf fk">order<tspan x="167.07" class="ty">foreignkey</tspan></text><text x="13" y="111" class="tf fk">product<tspan x="167.07" class="ty">foreignkey</tspan></text><text x="13" y="136" class="tf">quantity<tspan x="167.07" class="ty">integerfield</tspan></text><text x="13" y="161" class="tf">lineitem_total<tspan x="167.07" class="ty">decimalfield</tspan></text></svg><svg width="202.3" height="225" x="-99.96" y="194.22" id="h3567289020" class="t"><rect height="40" width="202.3" class="th"></rect><text x="13" y="25" class="tht">UserMessage</text><rect height="185" width="202.3" class="t-bg"></rect><text x="13" y="61" class="tf pk">id<tspan x="189.3" class="ty">int</tspan></text><path d="M7,14A2,2 0 0,1 5,12A2,2 0 0,1 7,10A2,2 0 0,1 9,12A2,2 0 0,1 7,14M12.65,10C11.83,7.67 9.61,6 7, 6A6, 6 0 0, 0 1, 12A6, 6 0 0, 0 7, 18C9.61, 18 11.83, 16.33 12.65, 14H17V18H21V14H23V10H12.65Z" class="i pk" transform="translate(156.626171875, 48) scale(0.65)"></path><text x="13" y="86" class="tf">ref_number<tspan x="189.3" class="ty">CharField</tspan></text><text x="13" y="111" class="tf fk">user<tspan x="189.3" class="ty">ForeignKey</tspan></text><text x="13" y="136" class="tf">user_message<tspan x="189.3" class="ty">TextField</tspan></text><text x="13" y="161" class="tf">message_date<tspan x="189.3" class="ty">DateTimeField</tspan></text><text x="13" y="186" class="tf">read<tspan x="189.3" class="ty">BooleanField</tspan></text><text x="13" y="211" class="tf">closed<tspan x="189.3" class="ty">BooleanField</tspan></text></svg><svg width="185.63" height="325" x="221.9" y="243.95" id="h1537667952" class="t"><rect height="40" width="185.63" class="th"></rect><text x="13" y="25" class="tht">User</text><rect height="285" width="185.63" class="t-bg"></rect><text x="13" y="61" class="tf pk">id<tspan x="172.63" class="ty">int</tspan></text><path d="M7,14A2,2 0 0,1 5,12A2,2 0 0,1 7,10A2,2 0 0,1 9,12A2,2 0 0,1 7,14M12.65,10C11.83,7.67 9.61,6 7, 6A6, 6 0 0, 0 1, 12A6, 6 0 0, 0 7, 18C9.61, 18 11.83, 16.33 12.65, 14H17V18H21V14H23V10H12.65Z" class="i pk" transform="translate(139.956171875, 48) scale(0.65)"></path><text x="13" y="86" class="tf">username<tspan x="172.63" class="ty">CharField</tspan></text><text x="13" y="111" class="tf">first_name<tspan x="172.63" class="ty">CharField</tspan></text><text x="13" y="136" class="tf">last_message<tspan x="172.63" class="ty">TextField</tspan></text><text x="13" y="161" class="tf">email<tspan x="172.63" class="ty">EmailField</tspan></text><text x="13" y="186" class="tf">password<tspan x="172.63" class="ty">CharField</tspan></text><text x="13" y="211" class="tf">is_staff<tspan x="172.63" class="ty">BooleanField</tspan></text><text x="13" y="236" class="tf">is_active<tspan x="172.63" class="ty">BooleanField</tspan></text><text x="13" y="261" class="tf">is_superuser<tspan x="172.63" class="ty">BooleanField</tspan></text><text x="13" y="286" class="tf">last_login<tspan x="172.63" class="ty">DateTimeField</tspan></text><text x="13" y="311" class="tf">date_joined<tspan x="172.63" class="ty">DateTimeField</tspan></text></svg><svg width="173.39" height="125" x="1240.54" y="185.54" id="h807582512" class="t"><rect height="40" width="173.39" class="th"></rect><text x="13" y="25" class="tht">Genre</text><rect height="85" width="173.39" class="t-bg"></rect><text x="13" y="61" class="tf pk">id<tspan x="160.39" class="ty">int</tspan></text><path d="M7,14A2,2 0 0,1 5,12A2,2 0 0,1 7,10A2,2 0 0,1 9,12A2,2 0 0,1 7,14M12.65,10C11.83,7.67 9.61,6 7, 6A6, 6 0 0, 0 1, 12A6, 6 0 0, 0 7, 18C9.61, 18 11.83, 16.33 12.65, 14H17V18H21V14H23V10H12.65Z" class="i pk" transform="translate(127.71617187499999, 48) scale(0.65)"></path><text x="13" y="86" class="tf">name<tspan x="160.39" class="ty">CharField</tspan></text><text x="13" y="111" class="tf">friendly_name<tspan x="160.39" class="ty">CharField</tspan></text></svg><svg width="173.39" height="125" x="1252.14" y="845.54" id="h574393512" class="t"><rect height="40" width="173.39" class="th"></rect><text x="13" y="25" class="tht">Promotion</text><rect height="85" width="173.39" class="t-bg"></rect><text x="13" y="61" class="tf pk">id<tspan x="160.39" class="ty">int</tspan></text><path d="M7,14A2,2 0 0,1 5,12A2,2 0 0,1 7,10A2,2 0 0,1 9,12A2,2 0 0,1 7,14M12.65,10C11.83,7.67 9.61,6 7, 6A6, 6 0 0, 0 1, 12A6, 6 0 0, 0 7, 18C9.61, 18 11.83, 16.33 12.65, 14H17V18H21V14H23V10H12.65Z" class="i pk" transform="translate(127.71617187499999, 48) scale(0.65)"></path><text x="13" y="86" class="tf">name<tspan x="160.39" class="ty">CharField</tspan></text><text x="13" y="111" class="tf">friendly_name<tspan x="160.39" class="ty">CharField</tspan></text></svg><svg width="196.73" height="425" x="1176" y="369.18" id="h3119304962" class="t"><rect height="40" width="196.73" class="th"></rect><text x="13" y="25" class="tht">Product</text><rect height="385" width="196.73" class="t-bg"></rect><text x="13" y="61" class="tf pk">id<tspan x="183.73" class="ty">int</tspan></text><path d="M7,14A2,2 0 0,1 5,12A2,2 0 0,1 7,10A2,2 0 0,1 9,12A2,2 0 0,1 7,14M12.65,10C11.83,7.67 9.61,6 7, 6A6, 6 0 0, 0 1, 12A6, 6 0 0, 0 7, 18C9.61, 18 11.83, 16.33 12.65, 14H17V18H21V14H23V10H12.65Z" class="i pk" transform="translate(151.056171875, 48) scale(0.65)"></path><text x="13" y="86" class="tf">artist<tspan x="183.73" class="ty">CharField</tspan></text><text x="13" y="111" class="tf">label<tspan x="183.73" class="ty">CharField</tspan></text><text x="13" y="136" class="tf fk">genre<tspan x="183.73" class="ty">ManyToManyField</tspan></text><text x="13" y="161" class="tf fk">promotion<tspan x="183.73" class="ty">ManyToManyField</tspan></text><text x="13" y="186" class="tf">sku<tspan x="183.73" class="ty">CharField</tspan></text><text x="13" y="211" class="tf">title<tspan x="183.73" class="ty">CharField</tspan></text><text x="13" y="236" class="tf">description<tspan x="183.73" class="ty">TextField</tspan></text><text x="13" y="261" class="tf">release_date<tspan x="183.73" class="ty">IntegerField</tspan></text><text x="13" y="286" class="tf">album_format<tspan x="183.73" class="ty">CharField</tspan></text><text x="13" y="311" class="tf">color<tspan x="183.73" class="ty">CharField</tspan></text><text x="13" y="336" class="tf">price<tspan x="183.73" class="ty">DecimalField</tspan></text><text x="13" y="361" class="tf">rating<tspan x="183.73" class="ty">DecimalField</tspan></text><text x="13" y="386" class="tf">image<tspan x="183.73" class="ty">ImageField</tspan></text><text x="13" y="411" class="tf">track_list<tspan x="183.73" class="ty">ArrayField</tspan></text></svg><svg width="200.74" height="275" x="835.92" y="109.32" id="h3449059065" class="t"><rect height="40" width="200.74" class="th"></rect><text x="13" y="25" class="tht">ProductReview</text><rect height="235" width="200.74" class="t-bg"></rect><text x="13" y="61" class="tf pk">id<tspan x="187.74" class="ty">int</tspan></text><path d="M7,14A2,2 0 0,1 5,12A2,2 0 0,1 7,10A2,2 0 0,1 9,12A2,2 0 0,1 7,14M12.65,10C11.83,7.67 9.61,6 7, 6A6, 6 0 0, 0 1, 12A6, 6 0 0, 0 7, 18C9.61, 18 11.83, 16.33 12.65, 14H17V18H21V14H23V10H12.65Z" class="i pk" transform="translate(155.066171875, 48) scale(0.65)"></path><text x="13" y="86" class="tf fk">product<tspan x="187.74" class="ty">ForeignKey</tspan></text><text x="13" y="111" class="tf fk">user<tspan x="187.74" class="ty">ForeignKey</tspan></text><text x="13" y="136" class="tf">body<tspan x="187.74" class="ty">TextField</tspan></text><text x="13" y="161" class="tf">review_date<tspan x="187.74" class="ty">DateTimeField</tspan></text><text x="13" y="186" class="tf">review_rating<tspan x="187.74" class="ty">IntegerField</tspan></text><text x="13" y="211" class="tf fk">upvote_list<tspan x="187.74" class="ty">ManyToManyField</tspan></text><text x="13" y="236" class="tf">upvote_count<tspan x="187.74" class="ty">IntegerField</tspan></text><text x="13" y="261" class="tf">admin_comment<tspan x="187.74" class="ty">TextField</tspan></text></svg><svg width="226.77" height="300" x="207.84" y="614.11" id="h3090830887" class="t"><rect height="40" width="226.77" class="th"></rect><text x="13" y="25" class="tht">UserProfile</text><rect height="260" width="226.77" class="t-bg"></rect><text x="13" y="61" class="tf pk">id<tspan x="213.77" class="ty">int</tspan></text><path d="M7,14A2,2 0 0,1 5,12A2,2 0 0,1 7,10A2,2 0 0,1 9,12A2,2 0 0,1 7,14M12.65,10C11.83,7.67 9.61,6 7, 6A6, 6 0 0, 0 1, 12A6, 6 0 0, 0 7, 18C9.61, 18 11.83, 16.33 12.65, 14H17V18H21V14H23V10H12.65Z" class="i pk" transform="translate(181.096171875, 48) scale(0.65)"></path><text x="13" y="86" class="tf fk">user<tspan x="213.77" class="ty">OneToOneField</tspan></text><text x="13" y="111" class="tf">default_full_name<tspan x="213.77" class="ty">CharField</tspan></text><text x="13" y="136" class="tf">default_phone_number<tspan x="213.77" class="ty">CharField</tspan></text><text x="13" y="161" class="tf">default_street_address1<tspan x="213.77" class="ty">CharField</tspan></text><text x="13" y="186" class="tf">default_street_address2<tspan x="213.77" class="ty">CharField</tspan></text><text x="13" y="211" class="tf">default_town_or_city<tspan x="213.77" class="ty">CharField</tspan></text><text x="13" y="236" class="tf">default_county<tspan x="213.77" class="ty">CharField</tspan></text><text x="13" y="261" class="tf">default_postcode<tspan x="213.77" class="ty">CharField</tspan></text><text x="13" y="286" class="tf">default_country<tspan x="213.77" class="ty">CountryField</tspan></text></svg><svg width="189.4" height="125" x="586.96" y="345" id="h1687414996" class="t"><rect height="40" width="189.4" class="th"></rect><text x="13" y="25" class="tht">Wishlist</text><rect height="85" width="189.4" class="t-bg"></rect><text x="13" y="61" class="tf pk">id<tspan x="176.4" class="ty">int</tspan></text><path d="M7,14A2,2 0 0,1 5,12A2,2 0 0,1 7,10A2,2 0 0,1 9,12A2,2 0 0,1 7,14M12.65,10C11.83,7.67 9.61,6 7, 6A6, 6 0 0, 0 1, 12A6, 6 0 0, 0 7, 18C9.61, 18 11.83, 16.33 12.65, 14H17V18H21V14H23V10H12.65Z" class="i pk" transform="translate(143.726171875, 48) scale(0.65)"></path><text x="13" y="86" class="tf fk">products<tspan x="176.4" class="ty">ManyToManyField</tspan></text><text x="13" y="111" class="tf fk">user<tspan x="176.4" class="ty">OneToOneField</tspan></text></svg></g></g><text class="qdbd-link" x="10" y="20">www.quickdatabasediagrams.com</text></svg>